<?xml version="1.0" ?><!DOCTYPE svg  PUBLIC '-//W3C//DTD SVG 1.1//EN'  'http://www.w3.org/Graphics/SVG/1.1/DTD/svg11.dtd'><svg enable-background="new 0 0 128 128" height="128px" id="Layer_1" version="1.1" viewBox="0 0 128 128" width="128px" xml:space="preserve" xmlns="http://www.w3.org/2000/svg" xmlns:xlink="http://www.w3.org/1999/xlink"><circle cx="64" cy="64" fill="#4B87C8" r="64"/><path d="M28,38c0-2.2,1.8-4,4-4h64c2.2,0,4,1.8,4,4v4c0,2.2-1.8,4-4,4H32c-2.2,0-4-1.8-4-4V38z" fill="#FFFFFF"/><path d="M28,62c0-2.2,1.8-4,4-4h64c2.2,0,4,1.8,4,4v4c0,2.2-1.8,4-4,4H32c-2.2,0-4-1.8-4-4V62z" fill="#FFFFFF"/><path d="M28,86c0-2.2,1.8-4,4-4h64c2.2,0,4,1.8,4,4v4c0,2.2-1.8,4-4,4H32c-2.2,0-4-1.8-4-4V86z" fill="#FFFFFF"/></svg>